<?xml version="1.0" encoding="utf-8"?>
<!-- Generator: Adobe Illustrator 21.0.2, SVG Export Plug-In . SVG Version: 6.00 Build 0)  -->
<svg version="1.1" id="Layer_1" xmlns="http://www.w3.org/2000/svg" xmlns:xlink="http://www.w3.org/1999/xlink" x="0px" y="0px"
	 viewBox="0 0 878 140" style="enable-background:new 0 0 878 140;" xml:space="preserve">
<style type="text/css">
	.st0{fill:#D0D9DC;}
	.st1{fill:#FFFFFF;}
	.st2{font-family:'OpenSans-Bold';}
	.st3{font-size:127.1214px;}
</style>
<g>
	<g>
		<path class="st0" d="M588,46.6h-5.2c1.1,3.5,1.7,7.1,1.7,11s-0.6,7.5-1.7,11h5.3c9.3,0,16.9,7.6,16.9,16.9s-7.6,16.9-16.9,16.9
			h-67.2c-9.3,0-16.9-7.6-16.9-16.9s7.6-16.9,16.9-16.9h44.6c2.1-3.2,3.3-6.9,3.3-11c0-4-1.2-7.8-3.3-11h-44.6
			c-21.4,0-38.8,17.4-38.8,38.8s17.4,38.8,38.8,38.8H588c21.4,0,38.8-17.4,38.8-38.8S609.4,46.6,588,46.6z"/>
		<path class="st1" d="M548.8,88.5h-41.1v-6.3h41.1c13.6,0,24.7-11.1,24.7-24.7s-11.1-24.7-24.7-24.7h-67.1
			C468.1,32.9,457,44,457,57.6c0,12.6,9.8,23.4,22.4,24.6l-0.6,6.2c-15.7-1.5-28-15-28-30.8c0-17.1,13.9-31,31-31h67
			c17.1,0,31,13.9,31,31C579.8,74.6,565.9,88.5,548.8,88.5z"/>
	</g>
	<text transform="matrix(1 0 0 1 11.0103 123.8462)" class="st1 st2 st3">Linked</text>
	<text transform="matrix(1 0 0 1 638.0103 123.8462)" class="st1 st2 st3">List</text>
</g>
</svg>
